# xmcd CD database file generated by OrangeCD 6.1
#
# Track frame offsets:
#	150
#	16998
#	35202
#	54561
#	73222
#	90727
#	106577
#	124487
#	139794
#	158340
#	175273
#	191179
#	206725
#	225661
#
# Disc length: 3192 seconds
#
# Revision: 2
# Processed by: cddbd v1.5.2PL0 Copyright (c) Steve Scherf et al.
# Submitted via: OrangeCD 6.1
#
DISCID=c60c760e
DTITLE=Sanne Salomonsen - The Album
DYEAR=1900
DGENRE=Blues
TTITLE0=For Life
TTITLE1=New Beginning
TTITLE2=You've Never Been Loved Before
TTITLE3=On A Night Like This
TTITLE4=Work It Out
TTITLE5=Love You Like I Do
TTITLE6=Fools
TTITLE7=Time For Us
TTITLE8=Precious You
TTITLE9=Sugah
TTITLE10=Mystery To Me
TTITLE11=Everybody's Eyes On You
TTITLE12=Morning
TTITLE13=Higher Ground (Bonus Track)
EXTD=
EXTT0=
EXTT1=
EXTT2=
EXTT3=
EXTT4=
EXTT5=
EXTT6=
EXTT7=
EXTT8=
EXTT9=
EXTT10=
EXTT11=
EXTT12=
EXTT13=
PLAYORDER=
